<svg width="30" height="30" viewBox="0 0 30 30" fill="none" xmlns="http://www.w3.org/2000/svg">
<rect x="0.691406" y="20.4795" width="27.8965" height="8.17241" fill="white" stroke="#566FAA"/>
<rect x="9.65723" y="9.72095" width="9.96551" height="10.8621" fill="white" stroke="#566FAA"/>
<path d="M5.65918 9.07422L9.15332 15.126L9.58594 15.876H0.866211L1.29883 15.126L4.79297 9.07422L5.22559 8.32422L5.65918 9.07422Z" fill="white" stroke="#566FAA"/>
<path d="M24.4868 9.07422L27.981 15.126L28.4136 15.876H19.6938L20.1265 15.126L23.6206 9.07422L24.0532 8.32422L24.4868 9.07422Z" fill="white" stroke="#566FAA"/>
<path d="M15.083 1.91943L18.9648 9.31592L19.3496 10.0483H9.93066L10.3154 9.31592L14.1973 1.91943L14.6396 1.07568L15.083 1.91943Z" fill="white" stroke="#566FAA"/>
<rect x="0.691406" y="15.9966" width="9.06896" height="4.5862" fill="white" stroke="#566FAA"/>
<rect x="19.519" y="15.9966" width="9.06896" height="4.5862" fill="white" stroke="#566FAA"/>
</svg>
