<svg width="63" height="96" viewBox="0 0 63 96" fill="none" xmlns="http://www.w3.org/2000/svg">
<path d="M37.7244 61.2821C25.1562 61.7426 12.5339 61.0964 -0.0377889 61.4533L-0.0817338 31.4856L0.20288 31.2837L-0.0823223 31.0843L-0.0852546 29.0847L0.199359 28.8827L-0.085843 28.6834L-0.0870166 27.8831L37.6752 27.7119C37.9241 38.8881 37.6901 50.1409 37.7244 61.2731L37.7244 61.2776L37.7244 61.2821Z" fill="#046B3C"/>
<path d="M59.9928 3.22145C60.765 3.24278 61.542 3.19856 62.3142 3.21086L62.4423 91.7083L60.1247 92.1233L59.9603 94.9304L42.4229 95.0104C42.4099 93.9395 42.4395 92.8661 42.4183 91.7997C48.3096 91.9649 54.2296 91.6012 60.1241 91.7189C60.0808 85.5032 60.1389 79.2735 60.1168 73.0486C60.116 72.5402 60.1088 72.059 59.804 71.6944L59.8034 71.2944C59.8028 70.8583 60.0915 70.3034 60.0912 70.0911L60.079 61.6812C60.0777 60.7594 59.7868 59.8343 59.7866 59.6784L59.7524 36.0486C59.7514 35.364 60.04 34.6848 60.0396 34.4431L60.0054 10.8133C59.9903 8.28501 60.039 5.73155 59.9944 3.20563C54.7935 3.05989 49.5259 3.1969 44.322 3.27714C43.6464 3.28926 42.9674 3.25846 42.2902 3.28641C41.9672 24.2968 42.3333 45.5254 42.3818 66.5589C42.4004 74.9484 42.2638 83.4018 42.4183 91.7884C41.6461 91.7671 40.8658 91.8158 40.0936 91.799L40.0889 88.5928L39.5109 88.1955C33.1324 88.2856 26.7356 88.1747 20.3572 88.2829L20.0676 88.2842C19.2268 88.2993 18.6427 88.2432 17.6414 88.2117C17.6038 88.2118 17.1279 88.3179 16.7532 88.2835C15.9286 88.2104 15.0846 88.3634 14.26 88.3107C14.2492 88.7084 12.5958 88.0065 12.5882 88.4019C10.8866 88.238 12.9891 88.4453 12.6061 88.3092C11.4243 87.8898 7.14366 88.3432 5.55352 88.3504L0.0387347 88.3756L0.0341016 85.1739L40.0837 84.9911L39.952 82.1628L39.0746 81.7737L0.0261994 81.9722L0.0163513 75.1666L37.744 74.5968L37.6123 71.7685C37.1299 70.8081 32.6488 71.8024 31.5119 71.8415C21.021 72.1944 10.4962 71.6731 0.0084453 71.9649L-0.00661786 61.5555C12.5538 61.1976 25.1647 61.8451 37.7216 61.3833C38.4937 61.3549 39.2741 61.3966 40.0463 61.3727C39.9946 48.2972 40.046 35.2031 39.9895 22.1276C39.9883 21.2848 40.0067 20.4397 39.8926 19.5997C39.8347 19.1593 39.8848 18.7208 39.9692 18.2933C40.0585 17.832 39.6943 17.088 39.6902 16.5232C39.6898 16.2904 40.0749 15.5905 39.9777 15.139L39.9705 10.1117C39.1983 10.0994 38.418 10.1459 37.6491 10.1223C25.0909 9.7751 12.4821 10.5376 -0.0791632 10.2944L-0.0843782 6.69051C1.16874 6.66898 2.43501 6.69935 3.68812 6.6733C4.83489 6.64773 5.9949 6.72604 7.33724 7.31868L9.53706 6.94034C10.0432 50.3522 8.4547 8.52016 8.92469 6.58162C8.95548 7.51239 8.88967 6.12084 8.91065 7.05166C9.48809 7.02191 10.0771 7.08701 10.6546 7.0437C11.3808 6.9839 12.0445 6.63969 12.6858 6.6345C13.4138 6.63118 14.6219 7.12276 15.4266 7.03548C15.9632 6.97655 17.2551 6.68596 17.6193 6.21206C18.0944 5.59305 21.8644 6.07745 22.9855 6.42482L19.6892 6.5438L39.9669 6.51454L39.9623 3.30833C40.7311 3.28448 41.5115 3.32837 42.2804 3.29775C42.2968 2.23119 42.2626 1.15808 42.2758 0.091532L59.8197 0.011483C60.1306 0.071071 59.9804 2.5911 59.9928 3.21693L59.9928 3.23275L59.9928 3.22145Z" fill="#0B0D0C"/>
<path d="M37.7177 18.0201C37.6695 18.6412 37.7426 19.3324 37.7207 19.9733C37.7129 20.2309 37.7362 20.4973 37.7219 20.755C37.6964 21.2704 37.7464 21.8008 37.7243 22.3184L-0.0809458 22.4881L-0.0904798 16.2453L38.0049 16.0744C37.987 16.2 38.02 16.3363 38.0054 16.4641C37.9537 16.9092 37.7708 17.3526 37.7177 18.0289L37.7177 18.0201Z" fill="#28BC4D"/>
<path d="M-0.0868437 82.1278L39.0429 81.9359L39.9189 82.3032L40.051 84.9759L-0.0820041 85.153L-0.0868437 82.1278Z" fill="#036035"/>
<path d="M37.7243 13.0794L-0.0820548 13.2467L-0.0868795 10.2075C12.5004 10.437 25.1353 9.71192 37.7195 10.0402C37.7817 11.0222 37.6359 12.1253 37.7243 13.0794Z" fill="#20B346"/>
<path d="M-0.0860811 72.0532C10.4232 71.7695 20.9698 72.2658 31.4822 71.9325C32.6199 71.8973 37.1101 70.9485 37.5952 71.8623L37.7273 74.5601L-0.0779903 75.1072L-0.0828043 72.0532L-0.0860811 72.0532Z" fill="#036035"/>
<path d="M37.7242 27.5385L-0.0817641 27.7062L-0.0871843 24.2705C0.191003 24.9952 0.315614 25.0054 0.905851 25.0566C12.3368 26.0485 24.7141 24.2165 36.2659 24.8739C36.7479 24.902 37.2396 24.8438 37.7232 24.8675C37.7394 25.7549 37.7064 26.6511 37.7275 27.5428L37.7242 27.5385Z" fill="#28BC4D"/>
<path d="M38.0145 15.8897L-0.0828127 16.0573L-0.0840274 15.3042L0.200916 15.1142L-0.0846365 14.9266L-0.0870659 13.4204L37.7201 13.2541C37.8452 14.6091 38.4151 13.1832 38.0145 15.8834L38.0145 15.8876L38.0145 15.8897Z" fill="#056C40"/>
<path d="M36.2696 24.7588C24.7143 24.1123 12.3366 25.9167 0.90859 24.9401C0.321614 24.8895 0.195363 24.8794 -0.0844828 24.1642L-0.0869097 22.6546L36.5562 22.4932L36.2696 24.7546L36.2696 24.7588Z" fill="#046B3C"/>
<path d="M-0.0851715 15.2528L-0.0857534 14.853L0.197802 15.0527L-0.0851683 15.2551L-0.0851715 15.2528Z" fill="#28BC4D"/>
<path d="M-0.0851745 28.9118L-0.0857564 28.512L0.197802 28.7118L-0.0851745 28.9118Z" fill="#28BC4D"/>
<path d="M-0.0851745 31.3213L-0.0857564 30.9214L0.197799 31.1189L-0.0851745 31.3213Z" fill="#28BC4D"/>
<path d="M39.9982 21.2916L39.1423 21.2954L39.1399 21.8936L40.0024 22.0937C40.0569 35.2057 40.008 48.3362 40.0544 61.4482C39.2922 61.4674 38.5219 61.4277 37.7597 61.4583C37.7272 50.2676 37.9593 38.9602 37.7152 27.7274C37.6946 26.794 37.7272 25.8468 37.7115 24.9133C37.2367 24.8905 36.7539 24.9492 36.2759 24.9196L36.5585 22.5098L37.7067 22.5048C37.7286 21.9745 37.6762 21.4309 37.7045 20.8961L38.8524 20.6871L38.8516 20.0912L37.7035 20.0963C37.7252 19.4368 37.6532 18.7257 37.7008 18.0865L39.9923 18.0765C40.0002 19.1459 39.9919 20.2199 39.9965 21.2871L39.9982 21.2916Z" fill="#036035"/>
<path d="M60.1132 69.0254L59.8298 69.2282L60.1137 69.4284L60.1149 70.2321L58.4004 70.67C58.2678 71.438 58.3243 72.2211 58.2993 72.991C58.2775 73.702 58.7726 74.456 57.8071 74.2588C57.9838 70.0538 57.6596 65.6449 57.7889 61.4197L45.0609 61.4769C45.0829 60.8994 43.9294 59.1523 43.6152 59.4797L43.036 61.4746C44.4789 61.5316 43.8044 66.4067 42.4614 66.7071C42.4136 45.6384 42.0492 24.3606 42.3715 3.30844C43.0448 3.28052 43.7215 3.31144 44.3964 3.29935L44.6895 6.51066L57.7127 6.45217L57.7195 11.2632L44.7045 11.3216L44.7153 18.9445L57.7287 18.886L57.7326 21.6934L44.7177 21.7518L44.7222 24.9645L57.7372 24.9015C57.7516 29.3117 57.7318 33.7379 57.756 38.1436C57.7884 44.9581 57.7574 51.7955 57.785 58.6101L59.8131 58.601L59.8148 59.8009L58.082 60.0056L60.1062 61.8078L60.1164 69.0299L60.1132 69.0254Z" fill="#046B3C"/>
<path d="M59.8002 71.481L59.5159 71.6835L59.8007 71.8834C60.1054 72.246 60.1127 72.7275 60.1134 73.2385C60.1339 79.4668 60.0758 85.7001 60.1208 91.9193C54.2322 91.8013 48.3116 92.1604 42.4229 91.9994C42.2685 83.6103 42.405 75.1498 42.3863 66.7556C43.7317 66.4556 44.4098 61.5896 42.9625 61.5306L43.5434 59.5384C43.8569 59.2115 45.0155 60.9561 44.9935 61.5327C44.9936 61.5847 44.6895 61.6313 44.694 62.5084C44.7152 66.9915 44.7217 71.4836 44.7249 75.96L57.7789 75.9009C57.7977 75.3718 57.7512 74.8272 57.7766 74.2958C58.7465 74.4926 58.2483 73.7443 58.2702 73.0298C58.2952 72.2587 58.2385 71.4767 58.3715 70.712L60.0911 70.2747C60.0914 70.4827 59.8028 71.0424 59.8034 71.4787L59.8002 71.4787L59.8002 71.481ZM57.7958 88.7195L57.7819 79.1022L44.7279 79.1613L44.741 88.1772L45.1768 88.7766L57.7958 88.7195Z" fill="#036035"/>
<path d="M39.7618 16.4617L38.0241 16.4696C38.0386 16.3405 38.0057 16.1959 38.0235 16.0691C38.4228 13.1891 37.8533 14.7099 37.7304 13.2646C37.6424 12.2581 37.7877 11.0921 37.7258 10.0583C38.4967 10.0797 39.2756 10.031 40.0465 10.0479L40.0538 15.0824C40.1475 15.5323 39.7631 16.2354 39.7634 16.4685L39.7634 16.464L39.7618 16.4617Z" fill="#036035"/>
<path d="M40.0509 18.0652L37.7268 18.0758C37.7814 17.3845 37.9626 16.9334 38.0143 16.4763L39.757 16.4684C39.7578 16.9636 40.047 17.606 40.0493 18.0652L40.0509 18.0652Z" fill="#056C40"/>
<path d="M40.051 22.0888L39.1765 21.8898L39.1756 21.2968L40.0498 21.2928L40.051 22.0933L40.051 22.0888Z" fill="#056C40"/>
<path d="M37.7243 20.0919L38.8839 20.0866L38.8881 20.6808L37.7238 20.8887C37.7382 20.6253 37.7149 20.353 37.7227 20.0896L37.7259 20.0896L37.7243 20.0919Z" fill="#056C40"/>
<path d="M60.0815 10.8357C59.6468 10.8942 59.6484 11.9844 60.0832 12.039L60.0844 12.842L59.8003 13.0445L60.085 13.2446L60.1006 24.0652L59.8165 24.2678L60.1011 24.4678L60.1069 28.4758L59.8228 28.6784L60.1075 28.8784L60.1139 33.289L59.8298 33.4916L60.1144 33.6916L60.1156 34.4946C58.9167 34.9772 58.315 34.7786 58.3802 36.9067C58.56 36.958 58.8295 36.8369 58.9603 36.9041C58.9118 37.2572 59.0024 37.7227 58.9621 38.1074L57.8001 38.1127C57.779 33.7067 57.7955 29.2847 57.781 24.8832L44.7312 24.9421L44.7265 21.7371L57.778 21.6781L57.774 18.8735L44.7274 18.9324L44.7164 11.3168L57.763 11.2578L57.7561 6.4469L44.7095 6.51038L44.4156 3.30214C49.6142 3.2221 54.8765 3.08523 60.0722 3.23139C60.1167 5.7622 60.068 8.31606 60.0831 10.847L60.0831 10.8425L60.0815 10.8357Z" fill="#28BC4D"/>
<path d="M59.8284 37.3647L59.5445 37.7639C59.6214 36.6965 59.2182 37.112 58.958 36.9685C58.992 36.731 58.9245 36.4283 58.9569 36.1659L59.8267 36.162L59.8284 37.3647Z" fill="#28BC4D"/>
<path d="M59.8282 36.1578L58.9577 36.1618C58.9253 36.4194 58.9929 36.7263 58.9589 36.9637C58.8311 36.892 58.5613 37.0174 58.378 36.9663C58.3111 34.8433 58.9152 35.0393 60.1155 34.5573C60.1158 34.7944 59.8272 35.4757 59.8282 36.1624L59.8282 36.1578Z" fill="#20B346"/>
<path d="M59.8289 58.6472L57.8181 58.656C57.7945 51.8386 57.8258 44.9982 57.7908 38.1762L58.9401 38.1712C58.9768 37.7858 58.8872 37.3195 58.9385 36.9658C59.1973 37.1097 59.5944 36.6933 59.5182 37.7631L59.799 37.3631L59.8273 58.645L59.8289 58.6472Z" fill="#20B346"/>
<path d="M60.1208 61.8635L58.0881 60.0681L59.8281 59.864C59.8284 60.0196 60.1195 60.9432 60.1208 61.8635Z" fill="#036035"/>
<path d="M60.1206 12.0587C59.6878 12.004 59.6862 10.9129 60.1189 10.8544L60.1206 12.0587Z" fill="#20B346"/>
<path d="M60.1201 12.8627L60.1207 13.2626L59.8371 13.0628L60.1201 12.8605L60.1201 12.8627Z" fill="#20B346"/>
<path d="M60.1199 24.1101L60.1205 24.5122L59.8369 24.3124L60.1199 24.1101Z" fill="#20B346"/>
<path d="M60.1199 28.5301L60.1205 28.9299L59.8369 28.7302L60.1199 28.5278L60.1199 28.5301Z" fill="#20B346"/>
<path d="M60.1201 33.3513L60.1207 33.7511L59.8371 33.5536L60.1201 33.3513Z" fill="#20B346"/>
<path d="M60.1204 69.104L60.1209 69.5038L59.8374 69.3041L60.1204 69.1017L60.1204 69.104Z" fill="#036035"/>
<path d="M59.8284 71.5111L59.829 71.9132L59.547 71.7134L59.8284 71.5111Z" fill="#046B3C"/>
<path d="M57.7921 74.2699C57.7699 74.8026 57.8133 75.3418 57.7944 75.8722L44.7235 75.9315C44.7203 71.4585 44.717 66.9787 44.6924 62.5036C44.6879 61.6257 44.9907 61.5859 44.9922 61.5295L57.775 61.4716C57.642 65.6834 57.9709 70.0782 57.7937 74.2699L57.7904 74.2699L57.7921 74.2699Z" fill="#0B0D0C"/>
<path d="M57.7944 88.7221L45.1555 88.7794L44.719 88.1823L44.7058 79.2062L57.7803 79.1469L57.7944 88.7221Z" fill="#0B0D0C"/>
</svg>
